<mxfile host="app.diagrams.net" modified="2021-10-18T12:56:48.522Z" agent="5.0 (Windows NT 10.0; Win64; x64) AppleWebKit/537.36 (KHTML, like Gecko) Chrome/94.0.4606.81 Safari/537.36 Edg/94.0.992.50" etag="V8V1uIDp8GvMW35t5Gx5" version="15.5.1" type="github">
  <diagram id="uaCUEMU1W77UUPXJ3ZWc" name="Page-1">
    <mxGraphModel dx="1038" dy="579" grid="1" gridSize="10" guides="1" tooltips="1" connect="1" arrows="1" fold="1" page="1" pageScale="1" pageWidth="850" pageHeight="1100" math="0" shadow="0">
      <root>
        <mxCell id="0" />
        <mxCell id="1" parent="0" />
        <mxCell id="Uc1QEPxtGTku1kzqHNRF-3" style="edgeStyle=orthogonalEdgeStyle;rounded=0;orthogonalLoop=1;jettySize=auto;html=1;entryX=0.5;entryY=0;entryDx=0;entryDy=0;" edge="1" parent="1" source="Uc1QEPxtGTku1kzqHNRF-1" target="Uc1QEPxtGTku1kzqHNRF-2">
          <mxGeometry relative="1" as="geometry" />
        </mxCell>
        <mxCell id="Uc1QEPxtGTku1kzqHNRF-1" value="Start Program" style="rounded=0;whiteSpace=wrap;html=1;" vertex="1" parent="1">
          <mxGeometry x="50" y="10" width="120" height="60" as="geometry" />
        </mxCell>
        <mxCell id="Uc1QEPxtGTku1kzqHNRF-5" style="edgeStyle=orthogonalEdgeStyle;rounded=0;orthogonalLoop=1;jettySize=auto;html=1;" edge="1" parent="1" source="Uc1QEPxtGTku1kzqHNRF-2" target="Uc1QEPxtGTku1kzqHNRF-6">
          <mxGeometry relative="1" as="geometry">
            <mxPoint x="110" y="220" as="targetPoint" />
          </mxGeometry>
        </mxCell>
        <mxCell id="Uc1QEPxtGTku1kzqHNRF-2" value="Would you like to (create account) or (login)?" style="shape=parallelogram;perimeter=parallelogramPerimeter;whiteSpace=wrap;html=1;fixedSize=1;" vertex="1" parent="1">
          <mxGeometry x="50" y="100" width="120" height="60" as="geometry" />
        </mxCell>
        <mxCell id="Uc1QEPxtGTku1kzqHNRF-21" style="edgeStyle=orthogonalEdgeStyle;rounded=0;orthogonalLoop=1;jettySize=auto;html=1;" edge="1" parent="1" source="Uc1QEPxtGTku1kzqHNRF-6" target="Uc1QEPxtGTku1kzqHNRF-20">
          <mxGeometry relative="1" as="geometry" />
        </mxCell>
        <mxCell id="Uc1QEPxtGTku1kzqHNRF-6" value="User inputs response" style="shape=parallelogram;perimeter=parallelogramPerimeter;whiteSpace=wrap;html=1;fixedSize=1;" vertex="1" parent="1">
          <mxGeometry x="50" y="190" width="120" height="60" as="geometry" />
        </mxCell>
        <mxCell id="Uc1QEPxtGTku1kzqHNRF-22" style="edgeStyle=orthogonalEdgeStyle;rounded=0;orthogonalLoop=1;jettySize=auto;html=1;" edge="1" parent="1" source="Uc1QEPxtGTku1kzqHNRF-20">
          <mxGeometry relative="1" as="geometry">
            <mxPoint x="240" y="340" as="targetPoint" />
          </mxGeometry>
        </mxCell>
        <mxCell id="Uc1QEPxtGTku1kzqHNRF-23" value="Login" style="edgeLabel;html=1;align=center;verticalAlign=middle;resizable=0;points=[];" vertex="1" connectable="0" parent="Uc1QEPxtGTku1kzqHNRF-22">
          <mxGeometry x="-0.2489" relative="1" as="geometry">
            <mxPoint as="offset" />
          </mxGeometry>
        </mxCell>
        <mxCell id="Uc1QEPxtGTku1kzqHNRF-24" style="edgeStyle=orthogonalEdgeStyle;rounded=0;orthogonalLoop=1;jettySize=auto;html=1;" edge="1" parent="1" source="Uc1QEPxtGTku1kzqHNRF-20" target="Uc1QEPxtGTku1kzqHNRF-26">
          <mxGeometry relative="1" as="geometry">
            <mxPoint x="110" y="440" as="targetPoint" />
          </mxGeometry>
        </mxCell>
        <mxCell id="Uc1QEPxtGTku1kzqHNRF-25" value="Create Account" style="edgeLabel;html=1;align=center;verticalAlign=middle;resizable=0;points=[];" vertex="1" connectable="0" parent="Uc1QEPxtGTku1kzqHNRF-24">
          <mxGeometry x="-0.2" y="2" relative="1" as="geometry">
            <mxPoint as="offset" />
          </mxGeometry>
        </mxCell>
        <mxCell id="Uc1QEPxtGTku1kzqHNRF-20" value="Is it Login or Create Account" style="rhombus;whiteSpace=wrap;html=1;" vertex="1" parent="1">
          <mxGeometry x="70" y="300" width="80" height="80" as="geometry" />
        </mxCell>
        <mxCell id="Uc1QEPxtGTku1kzqHNRF-28" value="" style="edgeStyle=orthogonalEdgeStyle;rounded=0;orthogonalLoop=1;jettySize=auto;html=1;" edge="1" parent="1" source="Uc1QEPxtGTku1kzqHNRF-26" target="Uc1QEPxtGTku1kzqHNRF-27">
          <mxGeometry relative="1" as="geometry" />
        </mxCell>
        <mxCell id="Uc1QEPxtGTku1kzqHNRF-26" value="Enter Username:" style="shape=parallelogram;perimeter=parallelogramPerimeter;whiteSpace=wrap;html=1;fixedSize=1;" vertex="1" parent="1">
          <mxGeometry x="50" y="420" width="120" height="60" as="geometry" />
        </mxCell>
        <mxCell id="Uc1QEPxtGTku1kzqHNRF-30" style="edgeStyle=orthogonalEdgeStyle;rounded=0;orthogonalLoop=1;jettySize=auto;html=1;entryX=0.5;entryY=0;entryDx=0;entryDy=0;" edge="1" parent="1" source="Uc1QEPxtGTku1kzqHNRF-27" target="Uc1QEPxtGTku1kzqHNRF-29">
          <mxGeometry relative="1" as="geometry" />
        </mxCell>
        <mxCell id="Uc1QEPxtGTku1kzqHNRF-27" value="User Inputs New Username" style="shape=parallelogram;perimeter=parallelogramPerimeter;whiteSpace=wrap;html=1;fixedSize=1;" vertex="1" parent="1">
          <mxGeometry x="50" y="510" width="120" height="60" as="geometry" />
        </mxCell>
        <mxCell id="Uc1QEPxtGTku1kzqHNRF-31" style="edgeStyle=orthogonalEdgeStyle;rounded=0;orthogonalLoop=1;jettySize=auto;html=1;entryX=1;entryY=0.25;entryDx=0;entryDy=0;" edge="1" parent="1" source="Uc1QEPxtGTku1kzqHNRF-29" target="Uc1QEPxtGTku1kzqHNRF-26">
          <mxGeometry relative="1" as="geometry">
            <Array as="points">
              <mxPoint x="220" y="650" />
              <mxPoint x="220" y="436" />
            </Array>
          </mxGeometry>
        </mxCell>
        <mxCell id="Uc1QEPxtGTku1kzqHNRF-32" value="Yes" style="edgeLabel;html=1;align=center;verticalAlign=middle;resizable=0;points=[];" vertex="1" connectable="0" parent="Uc1QEPxtGTku1kzqHNRF-31">
          <mxGeometry x="-0.3382" y="-1" relative="1" as="geometry">
            <mxPoint as="offset" />
          </mxGeometry>
        </mxCell>
        <mxCell id="Uc1QEPxtGTku1kzqHNRF-34" style="edgeStyle=orthogonalEdgeStyle;rounded=0;orthogonalLoop=1;jettySize=auto;html=1;entryX=0.5;entryY=0;entryDx=0;entryDy=0;" edge="1" parent="1" source="Uc1QEPxtGTku1kzqHNRF-29" target="Uc1QEPxtGTku1kzqHNRF-33">
          <mxGeometry relative="1" as="geometry" />
        </mxCell>
        <mxCell id="Uc1QEPxtGTku1kzqHNRF-35" value="No" style="edgeLabel;html=1;align=center;verticalAlign=middle;resizable=0;points=[];" vertex="1" connectable="0" parent="Uc1QEPxtGTku1kzqHNRF-34">
          <mxGeometry x="-0.2933" y="-3" relative="1" as="geometry">
            <mxPoint as="offset" />
          </mxGeometry>
        </mxCell>
        <mxCell id="Uc1QEPxtGTku1kzqHNRF-29" value="Is this username already used" style="rhombus;whiteSpace=wrap;html=1;" vertex="1" parent="1">
          <mxGeometry x="70" y="610" width="80" height="80" as="geometry" />
        </mxCell>
        <mxCell id="Uc1QEPxtGTku1kzqHNRF-37" value="" style="edgeStyle=orthogonalEdgeStyle;rounded=0;orthogonalLoop=1;jettySize=auto;html=1;" edge="1" parent="1" source="Uc1QEPxtGTku1kzqHNRF-33" target="Uc1QEPxtGTku1kzqHNRF-36">
          <mxGeometry relative="1" as="geometry" />
        </mxCell>
        <mxCell id="Uc1QEPxtGTku1kzqHNRF-33" value="Enter Password:" style="shape=parallelogram;perimeter=parallelogramPerimeter;whiteSpace=wrap;html=1;fixedSize=1;" vertex="1" parent="1">
          <mxGeometry x="50" y="730" width="120" height="60" as="geometry" />
        </mxCell>
        <mxCell id="Uc1QEPxtGTku1kzqHNRF-39" value="" style="edgeStyle=orthogonalEdgeStyle;rounded=0;orthogonalLoop=1;jettySize=auto;html=1;" edge="1" parent="1" source="Uc1QEPxtGTku1kzqHNRF-36" target="Uc1QEPxtGTku1kzqHNRF-38">
          <mxGeometry relative="1" as="geometry" />
        </mxCell>
        <mxCell id="Uc1QEPxtGTku1kzqHNRF-36" value="User Inputs Password" style="shape=parallelogram;perimeter=parallelogramPerimeter;whiteSpace=wrap;html=1;fixedSize=1;" vertex="1" parent="1">
          <mxGeometry x="50" y="830" width="120" height="60" as="geometry" />
        </mxCell>
        <mxCell id="Uc1QEPxtGTku1kzqHNRF-40" style="edgeStyle=orthogonalEdgeStyle;rounded=0;orthogonalLoop=1;jettySize=auto;html=1;entryX=0;entryY=0.25;entryDx=0;entryDy=0;" edge="1" parent="1" source="Uc1QEPxtGTku1kzqHNRF-38" target="Uc1QEPxtGTku1kzqHNRF-2">
          <mxGeometry relative="1" as="geometry">
            <Array as="points">
              <mxPoint x="30" y="960" />
              <mxPoint x="30" y="119" />
            </Array>
          </mxGeometry>
        </mxCell>
        <mxCell id="Uc1QEPxtGTku1kzqHNRF-38" value="Save Username and Password" style="whiteSpace=wrap;html=1;" vertex="1" parent="1">
          <mxGeometry x="50" y="930" width="120" height="60" as="geometry" />
        </mxCell>
        <mxCell id="Uc1QEPxtGTku1kzqHNRF-43" value="" style="edgeStyle=orthogonalEdgeStyle;rounded=0;orthogonalLoop=1;jettySize=auto;html=1;" edge="1" parent="1" source="Uc1QEPxtGTku1kzqHNRF-41" target="Uc1QEPxtGTku1kzqHNRF-42">
          <mxGeometry relative="1" as="geometry" />
        </mxCell>
        <mxCell id="Uc1QEPxtGTku1kzqHNRF-41" value="Enter Username:" style="shape=parallelogram;perimeter=parallelogramPerimeter;whiteSpace=wrap;html=1;fixedSize=1;" vertex="1" parent="1">
          <mxGeometry x="230" y="310" width="120" height="60" as="geometry" />
        </mxCell>
        <mxCell id="Uc1QEPxtGTku1kzqHNRF-45" style="edgeStyle=orthogonalEdgeStyle;rounded=0;orthogonalLoop=1;jettySize=auto;html=1;" edge="1" parent="1" source="Uc1QEPxtGTku1kzqHNRF-42" target="Uc1QEPxtGTku1kzqHNRF-44">
          <mxGeometry relative="1" as="geometry" />
        </mxCell>
        <mxCell id="Uc1QEPxtGTku1kzqHNRF-42" value="User Inputs Username" style="shape=parallelogram;perimeter=parallelogramPerimeter;whiteSpace=wrap;html=1;fixedSize=1;" vertex="1" parent="1">
          <mxGeometry x="380" y="310" width="120" height="60" as="geometry" />
        </mxCell>
        <mxCell id="Uc1QEPxtGTku1kzqHNRF-47" value="" style="edgeStyle=orthogonalEdgeStyle;rounded=0;orthogonalLoop=1;jettySize=auto;html=1;" edge="1" parent="1" source="Uc1QEPxtGTku1kzqHNRF-44" target="Uc1QEPxtGTku1kzqHNRF-46">
          <mxGeometry relative="1" as="geometry" />
        </mxCell>
        <mxCell id="Uc1QEPxtGTku1kzqHNRF-44" value="Enter Password:" style="shape=parallelogram;perimeter=parallelogramPerimeter;whiteSpace=wrap;html=1;fixedSize=1;" vertex="1" parent="1">
          <mxGeometry x="550" y="310" width="120" height="60" as="geometry" />
        </mxCell>
        <mxCell id="Uc1QEPxtGTku1kzqHNRF-49" style="edgeStyle=orthogonalEdgeStyle;rounded=0;orthogonalLoop=1;jettySize=auto;html=1;entryX=1;entryY=0.5;entryDx=0;entryDy=0;" edge="1" parent="1" source="Uc1QEPxtGTku1kzqHNRF-46" target="Uc1QEPxtGTku1kzqHNRF-48">
          <mxGeometry relative="1" as="geometry">
            <Array as="points">
              <mxPoint x="760" y="450" />
            </Array>
          </mxGeometry>
        </mxCell>
        <mxCell id="Uc1QEPxtGTku1kzqHNRF-46" value="User Inputs Password" style="shape=parallelogram;perimeter=parallelogramPerimeter;whiteSpace=wrap;html=1;fixedSize=1;" vertex="1" parent="1">
          <mxGeometry x="700" y="310" width="120" height="60" as="geometry" />
        </mxCell>
        <mxCell id="Uc1QEPxtGTku1kzqHNRF-51" style="edgeStyle=orthogonalEdgeStyle;rounded=0;orthogonalLoop=1;jettySize=auto;html=1;exitX=0;exitY=0.5;exitDx=0;exitDy=0;entryX=1;entryY=0.5;entryDx=0;entryDy=0;" edge="1" parent="1" source="Uc1QEPxtGTku1kzqHNRF-48" target="Uc1QEPxtGTku1kzqHNRF-50">
          <mxGeometry relative="1" as="geometry" />
        </mxCell>
        <mxCell id="Uc1QEPxtGTku1kzqHNRF-52" value="Yes" style="edgeLabel;html=1;align=center;verticalAlign=middle;resizable=0;points=[];" vertex="1" connectable="0" parent="Uc1QEPxtGTku1kzqHNRF-51">
          <mxGeometry x="-0.296" y="-2" relative="1" as="geometry">
            <mxPoint as="offset" />
          </mxGeometry>
        </mxCell>
        <mxCell id="Uc1QEPxtGTku1kzqHNRF-53" style="edgeStyle=orthogonalEdgeStyle;rounded=0;orthogonalLoop=1;jettySize=auto;html=1;" edge="1" parent="1" source="Uc1QEPxtGTku1kzqHNRF-48" target="Uc1QEPxtGTku1kzqHNRF-54">
          <mxGeometry relative="1" as="geometry">
            <mxPoint x="510" y="580" as="targetPoint" />
          </mxGeometry>
        </mxCell>
        <mxCell id="Uc1QEPxtGTku1kzqHNRF-56" value="No" style="edgeLabel;html=1;align=center;verticalAlign=middle;resizable=0;points=[];" vertex="1" connectable="0" parent="Uc1QEPxtGTku1kzqHNRF-53">
          <mxGeometry x="-0.26" y="-1" relative="1" as="geometry">
            <mxPoint as="offset" />
          </mxGeometry>
        </mxCell>
        <mxCell id="Uc1QEPxtGTku1kzqHNRF-48" value="Does the Username and input match any saved username or input?" style="rhombus;whiteSpace=wrap;html=1;" vertex="1" parent="1">
          <mxGeometry x="470" y="410" width="80" height="80" as="geometry" />
        </mxCell>
        <mxCell id="Uc1QEPxtGTku1kzqHNRF-50" value="Welcome, + Username" style="shape=parallelogram;perimeter=parallelogramPerimeter;whiteSpace=wrap;html=1;fixedSize=1;" vertex="1" parent="1">
          <mxGeometry x="260" y="420" width="120" height="60" as="geometry" />
        </mxCell>
        <mxCell id="Uc1QEPxtGTku1kzqHNRF-58" style="edgeStyle=orthogonalEdgeStyle;rounded=0;orthogonalLoop=1;jettySize=auto;html=1;entryX=1;entryY=0.25;entryDx=0;entryDy=0;" edge="1" parent="1" source="Uc1QEPxtGTku1kzqHNRF-54" target="Uc1QEPxtGTku1kzqHNRF-2">
          <mxGeometry relative="1" as="geometry">
            <Array as="points">
              <mxPoint x="830" y="600" />
              <mxPoint x="830" y="116" />
            </Array>
          </mxGeometry>
        </mxCell>
        <mxCell id="Uc1QEPxtGTku1kzqHNRF-54" value="sorry account does not match records" style="shape=parallelogram;perimeter=parallelogramPerimeter;whiteSpace=wrap;html=1;fixedSize=1;" vertex="1" parent="1">
          <mxGeometry x="450" y="570" width="120" height="60" as="geometry" />
        </mxCell>
      </root>
    </mxGraphModel>
  </diagram>
</mxfile>
